<?xml version="1.0" encoding="UTF-8"?>
<!-- Generated by Pixelmator Pro 3.7 -->
<svg width="1000" height="1000" viewBox="0 0 1000 1000" xmlns="http://www.w3.org/2000/svg">
    <path id="Path" fill="#ff5393" stroke="none" d="M 315.767029 623.88269 C 303.977264 621.323975 291.832397 622.461182 279.971558 620.328979 C 269.105133 618.338867 258.380707 615.49585 248.082428 611.444702 C 227.414734 603.271118 208.593719 590.122314 196.093735 571.500854 C 189.701691 561.976807 185.085205 551.457886 182.102295 540.370239 C 180.823853 535.679321 179.829514 530.917358 179.190369 526.084229 C 177.343719 513.362061 180.184631 500.071045 177.698822 487.135559 C 175.710251 477.042969 172.017014 467.305786 166.761353 458.492615 C 156.392059 441.079407 140.056824 427.50415 121.022743 420.467834 C 111.150566 416.842957 100.639214 414.994995 90.127861 414.994995 C 40.83807 414.994995 0.923287 454.938904 0.923287 504.264465 C 0.923287 545.700867 30.610779 582.659546 71.093735 591.472656 C 84.659096 594.457886 97.30114 591.970276 110.866463 592.183472 C 121.590919 592.325623 132.315338 594.031433 142.471573 597.514038 C 162.642044 604.47937 179.474396 618.623169 190.056793 637.173584 C 190.482925 637.955322 190.909119 638.737183 191.335251 639.590088 C 198.224411 652.45459 203.195999 666.456177 205.894897 680.813232 C 208.66481 695.312439 206.463028 709.669434 208.593719 724.168579 C 214.914749 767.31073 251.988678 800.431396 296.875 800.431396 C 346.164795 800.431396 386.079529 760.48761 386.079529 711.161987 C 385.937531 668.304199 355.894867 632.624756 315.767029 623.88269 Z"/>
    <path id="path1" fill="#ff5393" stroke="none" d="M 206.107925 311.155396 C 206.179016 312.861145 206.179016 314.567017 206.179016 316.343872 C 206.107925 327.075989 204.545456 337.808289 201.207428 348.042969 C 194.460266 368.299133 180.468735 385.286011 162.073868 396.089294 C 161.292603 396.515625 160.511368 397.013306 159.730133 397.439636 C 146.946045 404.476074 132.954559 409.593445 118.678963 412.436401 C 104.261353 415.350342 89.84375 413.360413 75.426147 415.634766 C 32.386345 422.386841 -0.355114 459.914124 0.142054 504.761963 C 0.639222 554.087585 41.051128 593.604919 90.340919 593.107422 C 133.096603 592.68103 168.465912 562.190063 176.775589 521.89093 C 179.190369 510.021484 177.911926 497.938812 179.971603 485.998352 C 181.818176 475.123962 184.588089 464.320679 188.494339 454.014893 C 196.377838 433.190063 209.375031 414.284241 227.840942 401.562012 C 237.286911 395.094116 247.798309 390.332214 258.73584 387.205017 C 263.423309 385.854492 268.181793 384.859497 273.011383 384.148743 C 277.059631 383.509155 281.25 383.366882 285.369354 383.366882 C 281.889221 383.224731 278.338074 382.798401 274.715942 382.016541 C 239.630707 374.340454 212.713074 345.626465 206.107925 311.155396 Z"/>
    <path id="path2" fill="#bad31f" stroke="none" d="M 451.775543 401.917358 C 431.107941 393.743774 412.286926 380.595032 399.786957 361.973572 C 393.394897 352.449524 388.778412 341.930664 385.79541 330.842957 C 384.517059 326.151978 383.522736 321.390076 382.883514 316.556946 C 382.457397 313.500916 382.244293 310.373535 382.244293 307.175171 C 381.392059 313.145508 379.971588 319.044556 377.98291 324.73053 C 371.164764 343.849609 357.741455 360.338867 340.482971 370.928833 C 331.747131 376.25946 322.088074 380.097534 312.002869 382.15863 C 310.937531 382.371887 309.872192 382.514038 308.806854 382.727295 C 310.724426 382.656128 312.571014 382.656128 314.488678 382.656128 C 325.213074 382.798401 335.9375 384.50415 346.093781 387.986694 C 366.26416 394.952026 383.096619 409.095947 393.679016 427.64624 C 394.105133 428.428162 394.53125 429.209839 394.957367 430.062866 C 401.846619 442.927246 406.818207 456.928833 409.517029 471.28595 C 410.298248 475.195007 410.653381 479.175171 410.866486 483.08429 C 416.903412 446.623047 445.028381 417.553711 481.178986 410.304138 C 471.093781 408.385193 461.292603 405.613159 451.775543 401.917358 Z"/>
    <path id="path3" fill="#ffa243" stroke="none" d="M 299.85791 205.680908 L 299.786926 205.680908 C 298.579559 205.609924 297.443207 205.538818 296.235779 205.538818 L 290.767059 205.538818 C 242.826721 207.102417 204.474442 246.406555 204.474442 294.737183 C 204.474442 300.352112 205.042572 305.824829 206.036911 311.155396 C 212.642059 345.626465 239.559692 374.340454 274.644836 381.945374 C 278.26709 382.727295 281.818207 383.153809 285.298248 383.295898 C 287.713043 383.437988 290.127838 383.437988 292.542633 383.366882 C 297.940338 383.437988 303.338043 383.437988 308.664764 382.656128 C 309.730103 382.514038 310.795441 382.300781 311.860779 382.087646 C 321.946045 380.026428 331.605133 376.188477 340.340881 370.85791 C 357.599426 360.2677 371.022736 343.778503 377.840912 324.659546 C 379.900574 318.973572 381.321045 313.074402 382.102264 307.104187 C 382.741486 302.697449 383.025604 298.148743 382.954498 293.671021 C 382.528381 246.833069 345.880676 208.737183 299.85791 205.680908 Z"/>
    <path id="path4" fill="#5992fc" stroke="none" d="M 909.161987 406.892578 C 883.664734 407.176819 859.090881 418.97522 842.471558 438.307373 C 829.900574 452.806702 823.863647 470.78833 822.443176 489.765259 C 820.880737 510.234741 824.21875 529.566895 817.542603 549.538818 C 810.79541 569.795044 796.804016 586.781799 778.409119 597.585144 C 777.627869 598.011597 776.846619 598.509033 776.065308 598.935547 C 763.281189 605.971924 749.289795 611.089294 735.014221 613.932251 C 724.786926 615.993347 714.559631 615.637939 704.332336 615.993347 C 699.147766 615.709106 693.963074 615.424805 688.778442 614.500854 C 677.911926 612.510742 667.1875 609.667847 656.889221 605.616516 C 636.221619 597.442993 617.400574 584.294189 604.900513 565.672729 C 598.508484 556.148804 593.892029 545.629761 590.909119 534.542114 C 589.630676 529.851196 588.636414 525.089294 587.997192 520.256226 C 587.997192 520.114075 587.926147 519.900818 587.926147 519.758667 C 581.392029 551.457886 558.096619 577.044678 527.698853 586.781799 C 535.724487 587.492554 543.607971 589.056274 551.207397 591.685913 C 571.377869 598.651245 588.210205 612.795044 598.792603 631.345459 C 599.218689 632.127319 599.644897 632.909058 600.071045 633.761963 C 606.960205 646.626465 611.931824 660.628113 614.630676 674.985107 C 617.400574 689.484253 615.198853 703.84137 617.329529 718.340454 C 623.437561 760.274353 658.735779 792.755371 701.917664 794.532227 L 702.414795 794.532227 C 702.982971 794.532227 703.551147 794.603271 704.04834 794.603271 L 708.167603 794.603271 C 708.806824 794.603271 709.517029 794.532227 710.15625 794.532227 L 710.298279 794.532227 C 733.948853 793.323914 756.463074 782.52063 772.230164 764.894165 C 799.786926 734.119019 791.051147 691.829773 804.829529 655.581848 C 812.713074 634.757019 825.710205 615.851196 844.176147 603.128906 C 853.622192 596.661133 864.133484 591.89917 875.070984 588.771912 C 879.758484 587.421509 884.51709 586.426392 889.346558 585.715698 C 906.676208 583.014893 923.295471 586.497498 940.198914 580.385132 C 965.127747 571.358704 985.29834 551.315674 994.24707 526.297485 C 997.798218 516.418152 999.502869 505.828064 999.431763 495.309113 C 998.792664 445.912354 958.451721 406.323914 909.161987 406.892578 Z"/>
    <path id="path5" fill="#bad31f" stroke="none" d="M 498.863647 409.095947 C 509.374969 409.095947 519.886353 410.943787 529.758545 414.568604 C 548.792603 421.604919 565.127808 435.180176 575.497192 452.593445 C 576.917664 455.009888 578.267029 457.497498 579.474426 459.985107 C 583.877808 468.371887 587.002869 477.540527 588.565308 487.206604 C 588.778381 484.790039 589.0625 482.373535 589.417603 480.028137 C 591.264221 469.153809 594.034119 458.350342 597.940369 448.044556 C 605.823853 427.21991 618.821045 408.314026 637.286987 395.591797 C 646.73291 389.123962 657.244324 384.362 668.181824 381.234619 C 672.869324 379.884277 677.627808 378.889343 682.457397 378.178589 C 695.099426 376.25946 708.522705 378.889343 721.377808 376.25946 C 731.463074 374.198364 741.122131 370.360413 749.857971 365.029846 C 767.116455 354.439636 780.539795 337.950439 787.35791 318.831482 C 790.909058 308.952026 792.613647 298.362 792.542603 287.842957 C 792.04541 238.517395 751.633545 199 702.34375 199.497498 C 660.9375 199.924011 624.289795 230.059448 615.909058 270.643005 C 613.068176 284.289246 615.696045 296.869385 615.625061 310.444641 C 615.553955 321.176819 613.991455 331.909119 610.653442 342.143738 C 603.906311 362.399902 589.914734 379.386841 571.519836 390.190063 C 570.738647 390.616577 569.957397 391.114075 569.176147 391.540405 C 556.39209 398.576904 542.400513 403.552124 528.125 406.53717 C 502.627808 412.009888 499.289764 407.461182 484.872131 409.735535 C 483.593781 409.948792 482.173309 410.233032 480.894867 410.446289 C 481.320984 410.517395 482.031219 410.588379 482.457428 410.659546 C 487.784119 409.593445 493.252838 409.095947 498.863647 409.095947 Z"/>
    <path id="path6" fill="#5dac20" stroke="none" d="M 588.494324 487.206604 C 586.931824 477.540527 583.806824 468.371887 579.403442 459.985107 C 578.195984 457.426514 576.917664 455.009888 575.426086 452.593445 C 565.056824 435.180176 548.721558 421.604919 529.687561 414.568604 C 520.880676 411.299133 511.576752 409.522278 502.201691 409.166931 C 489.559692 407.958679 481.107971 410.375122 481.107971 410.375122 C 445.028381 417.624878 416.903412 446.694214 410.795471 483.155396 C 410.014252 487.988403 409.588043 492.892548 409.588043 497.938812 L 409.588043 498.933899 C 409.659119 511.940521 412.642059 524.449585 417.96875 535.821533 C 431.392059 568.231445 463.210205 590.97522 500.426117 590.97522 C 509.872162 590.97522 519.034119 589.482666 527.556824 586.781799 C 557.954529 577.044678 581.321045 551.528931 587.784058 519.758667 C 588.991516 513.930542 589.630676 507.889252 589.630676 501.705811 C 589.701721 496.730591 589.275513 491.897491 588.494324 487.206604 Z"/>
</svg>
