<?xml version="1.0" encoding="UTF-8"?>
<!-- Generated by Pixelmator Pro 3.7 -->
<svg width="2513" height="1749" viewBox="0 0 2513 1749" xmlns="http://www.w3.org/2000/svg">
    <path id="Path" fill="#ff5393" stroke="none" d="M 995.599976 597.800049 C 979 594.199951 961.900024 595.800049 945.199951 592.800049 C 929.900024 590 914.800049 586 900.300049 580.300049 C 871.199951 568.800049 844.699951 550.300049 827.099976 524.099976 C 818.099976 510.699951 811.599976 495.900024 807.400024 480.300049 C 805.599976 473.699951 804.199951 467 803.300049 460.199951 C 800.699951 442.300049 804.699951 423.599976 801.199951 405.400024 C 798.400024 391.199951 793.199951 377.5 785.799988 365.100098 C 771.200012 340.600098 748.200012 321.5 721.400024 311.600098 C 707.5 306.5 692.700012 303.899902 677.900024 303.899902 C 608.5 303.899902 552.299988 360.100098 552.299988 429.5 C 552.299988 487.800049 594.099976 539.800049 651.099976 552.199951 C 670.200012 556.400024 688 552.900024 707.099976 553.199951 C 722.200012 553.400024 737.299988 555.800049 751.599976 560.699951 C 780 570.5 803.699951 590.400024 818.599976 616.5 C 819.199951 617.599976 819.800049 618.699951 820.400024 619.900024 C 830.099976 638 837.099976 657.699951 840.900024 677.900024 C 844.800049 698.300049 841.699951 718.5 844.699951 738.900024 C 853.599976 799.599976 905.800049 846.199951 969 846.199951 C 1038.400024 846.199951 1094.599976 790 1094.599976 720.599976 C 1094.400024 660.300049 1052.099976 610.099976 995.599976 597.800049 Z"/>
    <path id="path1" fill="#ff5393" stroke="none" d="M 841.199951 157.800049 C 841.300049 160.199951 841.300049 162.600098 841.300049 165.100098 C 841.199951 180.199951 839 195.300049 834.300049 209.699951 C 824.800049 238.199951 805.099976 262.100098 779.200012 277.300049 C 778.099976 277.899902 777 278.600098 775.900024 279.199951 C 757.900024 289.100098 738.200012 296.300049 718.099976 300.300049 C 697.799988 304.399902 677.5 301.600098 657.200012 304.800049 C 596.599976 314.300049 550.5 367.100098 551.200012 430.199951 C 551.900024 499.599976 608.799988 555.199951 678.200012 554.5 C 738.400024 553.900024 788.200012 511 799.900024 454.300049 C 803.300049 437.599976 801.5 420.599976 804.400024 403.800049 C 807 388.5 810.900024 373.300049 816.400024 358.800049 C 827.5 329.5 845.800049 302.899902 871.800049 285 C 885.099976 275.899902 899.900024 269.199951 915.300049 264.800049 C 921.900024 262.899902 928.599976 261.5 935.400024 260.5 C 941.099976 259.600098 947 259.399902 952.800049 259.399902 C 947.900024 259.199951 942.900024 258.600098 937.800049 257.5 C 888.400024 246.699951 850.5 206.300049 841.199951 157.800049 Z"/>
    <path id="path2" fill="#bad31f" stroke="none" d="M 1187.099976 285.5 C 1158 274 1131.5 255.5 1113.900024 229.300049 C 1104.900024 215.899902 1098.400024 201.100098 1094.199951 185.5 C 1092.400024 178.899902 1091 172.199951 1090.099976 165.399902 C 1089.5 161.100098 1089.199951 156.699951 1089.199951 152.199951 C 1088 160.600098 1086 168.899902 1083.199951 176.899902 C 1073.599976 203.800049 1054.699951 227 1030.400024 241.899902 C 1018.099976 249.399902 1004.5 254.800049 990.300049 257.699951 C 988.800049 258 987.300049 258.199951 985.800049 258.5 C 988.5 258.399902 991.099976 258.399902 993.800049 258.399902 C 1008.900024 258.600098 1024 261 1038.300049 265.899902 C 1066.699951 275.699951 1090.400024 295.600098 1105.300049 321.699951 C 1105.900024 322.800049 1106.5 323.899902 1107.099976 325.100098 C 1116.800049 343.199951 1123.800049 362.899902 1127.599976 383.099976 C 1128.699951 388.599976 1129.199951 394.199951 1129.5 399.699951 C 1138 348.399902 1177.599976 307.5 1228.5 297.300049 C 1214.300049 294.600098 1200.5 290.699951 1187.099976 285.5 Z"/>
    <path id="path3" fill="#ffa243" stroke="none" d="M 973.199951 9.399902 L 973.099976 9.399902 C 971.400024 9.300049 969.800049 9.199951 968.099976 9.199951 L 960.400024 9.199951 C 892.900024 11.399902 838.900024 66.699951 838.900024 134.699951 C 838.900024 142.600098 839.699951 150.300049 841.099976 157.800049 C 850.400024 206.300049 888.300049 246.699951 937.699951 257.399902 C 942.800049 258.5 947.800049 259.100098 952.699951 259.300049 C 956.099976 259.5 959.5 259.5 962.900024 259.399902 C 970.5 259.5 978.099976 259.5 985.599976 258.399902 C 987.099976 258.199951 988.599976 257.899902 990.099976 257.600098 C 1004.300049 254.699951 1017.900024 249.300049 1030.199951 241.800049 C 1054.5 226.899902 1073.400024 203.699951 1083 176.800049 C 1085.900024 168.800049 1087.900024 160.5 1089 152.100098 C 1089.900024 145.899902 1090.300049 139.5 1090.199951 133.199951 C 1089.599976 67.300049 1038 13.699951 973.199951 9.399902 Z"/>
    <path id="path4" fill="#5992fc" stroke="none" d="M 1831.100098 292.5 C 1795.199951 292.899902 1760.599976 309.5 1737.199951 336.699951 C 1719.5 357.100098 1711 382.399902 1709 409.099976 C 1706.800049 437.900024 1711.5 465.099976 1702.099976 493.199951 C 1692.599976 521.699951 1672.900024 545.599976 1647 560.800049 C 1645.900024 561.400024 1644.800049 562.099976 1643.699951 562.699951 C 1625.699951 572.599976 1606 579.800049 1585.900024 583.800049 C 1571.5 586.699951 1557.099976 586.199951 1542.699951 586.699951 C 1535.400024 586.300049 1528.099976 585.900024 1520.800049 584.599976 C 1505.5 581.800049 1490.400024 577.800049 1475.900024 572.099976 C 1446.800049 560.599976 1420.300049 542.099976 1402.699951 515.900024 C 1393.699951 502.5 1387.199951 487.699951 1383 472.099976 C 1381.199951 465.5 1379.800049 458.800049 1378.900024 452 C 1378.900024 451.800049 1378.800049 451.5 1378.800049 451.300049 C 1369.599976 495.900024 1336.800049 531.900024 1294 545.599976 C 1305.300049 546.599976 1316.400024 548.800049 1327.099976 552.5 C 1355.5 562.300049 1379.199951 582.199951 1394.099976 608.300049 C 1394.699951 609.400024 1395.300049 610.5 1395.900024 611.699951 C 1405.599976 629.800049 1412.599976 649.5 1416.400024 669.699951 C 1420.300049 690.099976 1417.199951 710.300049 1420.199951 730.699951 C 1428.800049 789.699951 1478.5 835.400024 1539.300049 837.900024 L 1540 837.900024 C 1540.800049 837.900024 1541.599976 838 1542.300049 838 L 1548.099976 838 C 1549 838 1550 837.900024 1550.900024 837.900024 L 1551.099976 837.900024 C 1584.400024 836.199951 1616.099976 821 1638.300049 796.199951 C 1677.099976 752.900024 1664.800049 693.400024 1684.199951 642.400024 C 1695.300049 613.099976 1713.599976 586.5 1739.599976 568.599976 C 1752.900024 559.5 1767.699951 552.800049 1783.099976 548.400024 C 1789.699951 546.5 1796.400024 545.099976 1803.199951 544.099976 C 1827.600098 540.300049 1851 545.199951 1874.800049 536.599976 C 1909.899902 523.900024 1938.300049 495.699951 1950.899902 460.5 C 1955.899902 446.599976 1958.300049 431.699951 1958.199951 416.900024 C 1957.300049 347.399902 1900.5 291.699951 1831.100098 292.5 Z"/>
    <path id="path5" fill="#bad31f" stroke="none" d="M 1253.400024 295.600098 C 1268.199951 295.600098 1283 298.199951 1296.900024 303.300049 C 1323.699951 313.199951 1346.699951 332.300049 1361.300049 356.800049 C 1363.300049 360.199951 1365.199951 363.699951 1366.900024 367.199951 C 1373.099976 379 1377.5 391.900024 1379.699951 405.5 C 1380 402.099976 1380.400024 398.699951 1380.900024 395.400024 C 1383.5 380.100098 1387.400024 364.899902 1392.900024 350.399902 C 1404 321.100098 1422.300049 294.5 1448.300049 276.600098 C 1461.599976 267.5 1476.400024 260.800049 1491.800049 256.399902 C 1498.400024 254.5 1505.099976 253.100098 1511.900024 252.100098 C 1529.699951 249.399902 1548.599976 253.100098 1566.699951 249.399902 C 1580.900024 246.5 1594.5 241.100098 1606.800049 233.600098 C 1631.099976 218.699951 1650 195.5 1659.599976 168.600098 C 1664.599976 154.699951 1667 139.800049 1666.900024 125 C 1666.199951 55.600098 1609.300049 0 1539.900024 0.699951 C 1481.599976 1.300049 1430 43.699951 1418.199951 100.800049 C 1414.199951 120 1417.900024 137.699951 1417.800049 156.800049 C 1417.699951 171.899902 1415.5 187 1410.800049 201.399902 C 1401.300049 229.899902 1381.599976 253.800049 1355.699951 269 C 1354.599976 269.600098 1353.5 270.300049 1352.400024 270.899902 C 1334.400024 280.800049 1314.699951 287.800049 1294.599976 292 C 1258.699951 299.699951 1254 293.300049 1233.699951 296.5 C 1231.900024 296.800049 1229.900024 297.199951 1228.099976 297.5 C 1228.699951 297.600098 1229.699951 297.699951 1230.300049 297.800049 C 1237.800049 296.300049 1245.5 295.600098 1253.400024 295.600098 Z"/>
    <path id="path6" fill="#5dac20" stroke="none" d="M 1379.599976 405.5 C 1377.400024 391.900024 1373 379 1366.800049 367.199951 C 1365.099976 363.600098 1363.300049 360.199951 1361.199951 356.800049 C 1346.599976 332.300049 1323.599976 313.199951 1296.800049 303.300049 C 1284.400024 298.699951 1271.300049 296.199951 1258.099976 295.699951 C 1240.300049 294 1228.400024 297.399902 1228.400024 297.399902 C 1177.599976 307.600098 1138 348.5 1129.400024 399.800049 C 1128.300049 406.599976 1127.699951 413.5 1127.699951 420.599976 L 1127.699951 422 C 1127.800049 440.300049 1132 457.900024 1139.5 473.900024 C 1158.400024 519.5 1203.199951 551.5 1255.599976 551.5 C 1268.900024 551.5 1281.800049 549.400024 1293.800049 545.599976 C 1336.599976 531.900024 1369.5 496 1378.599976 451.300049 C 1380.300049 443.099976 1381.199951 434.599976 1381.199951 425.900024 C 1381.300049 418.900024 1380.699951 412.099976 1379.599976 405.5 Z"/>
    <path id="path7" fill="#ffffff" stroke="none" d="M 1626.900024 1148.400024 L 1626.900024 1231.900024 L 1574.099976 1231.900024 L 1574.099976 1012.400024 L 1482.099976 1012.400024 L 1482.099976 1309.599976 L 1718.800049 1309.599976 L 1718.800049 1148.400024 Z M 1420.900024 1451 L 1174.199951 1451 L 1174.199951 1530.100098 L 1249.300049 1530.100098 L 1249.300049 1748.199951 L 1341.199951 1748.199951 L 1341.199951 1530.100098 L 1420.900024 1530.100098 Z M 1161.199951 1012.400024 L 914.599976 1012.400024 L 914.599976 1091.5 L 989.599976 1091.5 L 989.599976 1309.599976 L 1081.599976 1309.599976 L 1081.599976 1091.5 L 1161.199951 1091.5 Z M 2240.399902 1009.800049 L 1993.800049 1009.800049 L 1993.800049 1089 L 2068.899902 1089 L 2068.899902 1307 L 2160.800049 1307 L 2160.800049 1089 L 2240.399902 1089 Z M 1958.100098 1089 L 1958.100098 1009.800049 L 1758.699951 1009.800049 L 1758.699951 1089 L 1814.599976 1089 L 1814.599976 1230.400024 L 1758.699951 1230.400024 L 1758.699951 1307 L 1958.100098 1307 L 1958.100098 1230.400024 L 1906.5 1230.400024 L 1906.5 1089 Z M 1666 1530.699951 L 1666 1451 L 1543.400024 1451 C 1496.800049 1451 1458.300049 1485.699951 1452.300049 1530.699951 C 1451.800049 1534.699951 1451.5 1538.800049 1451.5 1542.899902 L 1451.5 1656.300049 C 1451.5 1660.399902 1451.800049 1664.5 1452.300049 1668.5 C 1458.300049 1713.5 1496.800049 1748.199951 1543.400024 1748.199951 L 1666 1748.199951 L 1666 1668.5 L 1543.400024 1668.5 L 1543.400024 1530.600098 L 1666 1530.600098 Z M 1872 1451 L 1872 1549.800049 L 1800.800049 1549.800049 L 1800.800049 1451 L 1708.900024 1451 L 1708.900024 1748.199951 L 1800.800049 1748.199951 L 1800.800049 1642.5 L 1872 1642.5 L 1872 1748.199951 L 1963.899902 1748.199951 L 1963.899902 1451 Z M 1098.400024 1451 L 965.099976 1451 L 907.699951 1591.199951 L 907.699951 1748.199951 L 992.699951 1748.199951 L 993.099976 1676.199951 L 1067.800049 1676.199951 L 1068.5 1748.199951 L 1154.300049 1748.199951 L 1154.300049 1595.800049 Z M 1018.699951 1530.100098 L 1040.900024 1530.100098 L 1066.900024 1599.5 L 993.400024 1599.5 Z M 1374.099976 1012.400024 L 1240.800049 1012.400024 L 1183.400024 1152.599976 L 1183.400024 1309.599976 L 1268.400024 1309.599976 L 1268.800049 1237.599976 L 1343.5 1237.599976 L 1344.199951 1309.599976 L 1430 1309.599976 L 1430 1157.199951 Z M 1294.5 1091.5 L 1316.699951 1091.5 L 1342.699951 1160.900024 L 1269.199951 1160.900024 Z M 774 1451 L 859.800049 1451 C 859.800049 1451 858.699951 1633.300049 859.800049 1651.699951 C 854.699951 1676.899902 827.400024 1733.699951 821.5 1745.899902 C 820.800049 1747.300049 819.400024 1748.199951 817.800049 1748.199951 L 756.099976 1748.199951 C 754.299988 1748.199951 752.700012 1747 752.099976 1745.300049 C 747.599976 1730.399902 727.400024 1663.899902 724.700012 1657.100098 C 721.599976 1649.399902 706.299988 1645.600098 703.299988 1665.5 C 700.599976 1682.800049 685.200012 1732.699951 681.200012 1745.300049 C 680.700012 1747 679.099976 1748.199951 677.200012 1748.199951 L 608.900024 1748.199951 C 607.200012 1748.199951 605.599976 1747.100098 605 1745.5 C 599.400024 1730.100098 572.200012 1654.100098 571.5 1641.800049 C 570.700012 1628 571.5 1451.099976 571.5 1451.099976 L 663.400024 1451.099976 L 661.900024 1614.300049 C 661.900024 1616.100098 664.400024 1616.699951 665.200012 1615.100098 L 687.900024 1568.699951 C 693.099976 1558.100098 703.799988 1551.300049 715.599976 1551.100098 L 717.5 1551.100098 C 729.799988 1550.899902 741.200012 1557.899902 746.5 1569.100098 L 770.599976 1619.800049 C 771.400024 1621.5 773.900024 1620.899902 773.900024 1619.100098 Z M 2266 1009.800049 L 2351.300049 1009.800049 L 2351.300049 1104.800049 L 2378.800049 1149.199951 L 2399.800049 1149.199951 L 2421.699951 1104.800049 L 2421.699951 1009.800049 L 2512.600098 1009.800049 L 2512.600098 1126.699951 L 2434.800049 1237.300049 L 2434.5 1307 L 2343.100098 1307 L 2341 1237.599976 L 2266 1126.699951 Z M 902.099976 1190.599976 C 902.599976 1152.800049 848.5 1149.699951 850.5 1148.699951 C 852.5 1147.699951 880.599976 1123.699951 876.5 1075.199951 C 872.400024 1026.699951 839.699951 1013.400024 823.900024 1012.400024 C 808.099976 1011.400024 738.400024 1012.400024 738.400024 1012.400024 L 646.5 1012.400024 L 646.5 1309.599976 L 738.400024 1309.599976 L 738.400024 1212.599976 L 810.099976 1212.599976 L 811.599976 1309.599976 L 902 1309.599976 C 902.099976 1309.599976 901.599976 1228.400024 902.099976 1190.599976 Z M 790.200012 1121.900024 C 790.200012 1132.800049 781.400024 1141.599976 770.5 1141.599976 L 738.299988 1141.599976 L 738.299988 1085.400024 L 770.5 1085.400024 C 781.400024 1085.400024 790.200012 1094.199951 790.200012 1105.099976 Z M 519.599976 1011.900024 L 418.700012 1011.900024 C 376.599976 1011.900024 342.400024 1046.099976 342.400024 1088.199951 L 342.400024 1233.199951 C 342.400024 1275.400024 376.599976 1309.5 418.700012 1309.5 L 519.599976 1309.5 C 561.799988 1309.5 595.900024 1275.300049 595.900024 1233.199951 L 595.900024 1088.199951 C 595.900024 1046.099976 561.799988 1011.900024 519.599976 1011.900024 Z M 507.099976 1209.599976 C 507.099976 1222.800049 496.400024 1233.5 483.200012 1233.5 L 455.900024 1233.5 C 442.700012 1233.5 432 1222.800049 432 1209.599976 L 432 1109.300049 C 432 1096.099976 442.700012 1085.400024 455.900024 1085.400024 L 483.200012 1085.400024 C 496.400024 1085.400024 507.099976 1096.099976 507.099976 1109.300049 Z M 199.200012 1012.400024 L 156.299988 1096 C 153.600006 1101.199951 146.299988 1101.5 143.200012 1096.5 L 91.899994 1012.400024 L 0 1012.400024 L 0 1309.599976 L 91.899994 1309.599976 L 91.899994 1151.199951 L 126.700012 1201.699951 C 128.100006 1203.699951 130.399994 1205 132.899994 1205 L 164 1205 C 166.700012 1205 169.100006 1203.599976 170.5 1201.300049 L 199.200012 1153.099976 L 199.200012 1309.599976 L 291.099976 1309.599976 L 291.099976 1012.400024 Z"/>
</svg>
